<svg width="80" height="80" viewBox="0 0 80 80" fill="none" xmlns="http://www.w3.org/2000/svg">
<path fill-rule="evenodd" clip-rule="evenodd" d="M16.6831 38.6033L21.6131 40.33L20.2031 51.6133C20.0131 53.12 20.6265 54.68 21.9365 55.6C25.7931 58.3167 32.0798 61.6667 40.0031 61.6667C46.5905 61.6871 53.0015 59.5388 58.2465 55.5533C59.4631 54.62 59.9865 53.13 59.8131 51.7133L58.3898 40.33L70.2898 36.1633C72.9665 35.23 72.9665 31.44 70.2898 30.5033L44.9565 21.6367C41.7485 20.5139 38.2544 20.5139 35.0465 21.6367L9.71313 30.5033C7.03313 31.4367 7.03313 35.2267 9.71313 36.1667L13.2131 37.39C12.7531 37.99 12.4298 38.6067 12.2031 39.1733C12.0482 39.5575 11.9234 39.9531 11.8298 40.3567C11.3174 40.6152 10.8804 41.0017 10.5612 41.4788C10.2421 41.9558 10.0514 42.5071 10.0079 43.0794C9.96427 43.6517 10.0692 44.2255 10.3125 44.7454C10.5557 45.2652 10.9291 45.7135 11.3965 46.0467L11.3798 46.1033L8.46312 59.2333C8.39823 59.5257 8.39984 59.829 8.46783 60.1207C8.53582 60.4124 8.66847 60.6851 8.85597 60.9186C9.04346 61.1522 9.28103 61.3407 9.55112 61.4702C9.82122 61.5996 10.1169 61.6668 10.4165 61.6667H16.2498C16.5493 61.6668 16.845 61.5996 17.1151 61.4702C17.3852 61.3407 17.6228 61.1522 17.8103 60.9186C17.9978 60.6851 18.1304 60.4124 18.1984 60.1207C18.2664 59.829 18.268 59.5257 18.2031 59.2333L15.2865 46.1L15.2731 46.0433C15.7081 45.7323 16.0619 45.3211 16.3046 44.8446C16.5473 44.3681 16.6717 43.8402 16.6675 43.3054C16.6632 42.7707 16.5304 42.2448 16.2802 41.7722C16.0299 41.2996 15.6697 40.8941 15.2298 40.59C15.512 39.8012 16.0168 39.1111 16.6831 38.6033ZM43.8531 24.78C41.3584 23.907 38.6412 23.907 36.1465 24.78L12.6131 33.02C12.5488 33.0433 12.4932 33.0859 12.4539 33.142C12.4146 33.1981 12.3935 33.2649 12.3935 33.3333C12.3935 33.4018 12.4146 33.4686 12.4539 33.5246C12.4932 33.5807 12.5488 33.6233 12.6131 33.6467L16.3831 34.97C17.5165 34.5067 19.3498 34.0233 21.3398 33.56C23.9726 32.9595 26.6164 32.4083 29.2698 31.9067C32.7481 31.2395 36.2339 30.6117 39.7265 30.0233C40.1559 29.9651 40.5911 30.0765 40.9398 30.3337C41.2884 30.591 41.5232 30.974 41.5943 31.4014C41.6654 31.8289 41.5672 32.2672 41.3206 32.6235C41.074 32.9798 40.6982 33.226 40.2731 33.31C39.2198 33.4878 38.1665 33.6689 37.1131 33.8533C35.1898 34.1933 32.5965 34.66 29.8998 35.1767C27.2031 35.6933 24.4098 36.2667 22.0998 36.8067L21.8198 36.8733L36.1465 41.8867C38.6412 42.7596 41.3584 42.7596 43.8531 41.8867L67.3898 33.6467C67.4541 33.6233 67.5097 33.5807 67.549 33.5246C67.5883 33.4686 67.6094 33.4018 67.6094 33.3333C67.6094 33.2649 67.5883 33.1981 67.549 33.142C67.5097 33.0859 67.4541 33.0433 67.3898 33.02L43.8531 24.78ZM44.9531 45.03L55.1698 41.4567L56.5031 52.1266C56.5286 52.2717 56.5152 52.4209 56.4643 52.5591C56.4133 52.6973 56.3267 52.8195 56.2131 52.9133C51.5499 56.4503 45.8526 58.3549 39.9998 58.3333C33.0298 58.3333 27.4098 55.38 23.8531 52.8733C23.7255 52.7757 23.6264 52.6457 23.566 52.4968C23.5057 52.3479 23.4862 52.1856 23.5098 52.0267L24.8298 41.4567L35.0465 45.03C38.2544 46.1527 41.7485 46.1527 44.9565 45.03M12.0831 58.3333L13.3331 52.6833L14.5898 58.3333H12.0831Z" fill="url(#paint0_linear_232_659)"/>
<defs>
<linearGradient id="paint0_linear_232_659" x1="7.70312" y1="41.2307" x2="72.2973" y2="41.2307" gradientUnits="userSpaceOnUse">
<stop stop-color="#A7BECF"/>
<stop offset="1" stop-color="#66A0CB"/>
</linearGradient>
</defs>
</svg>
