<svg width="83" height="37" viewBox="0 0 83 37" fill="none" xmlns="http://www.w3.org/2000/svg">
<path d="M32.0591 14.6375L33.049 13.5106L32.1821 12.749L31.2237 13.3917L32.0591 14.6375ZM49.1055 29.6123L48.1155 30.7393L49.0905 31.5958L50.0784 30.7541L49.1055 29.6123ZM82.3307 2.69391C82.3966 1.86811 81.7806 1.14522 80.9548 1.07928L67.4977 0.00483322C66.6719 -0.0611005 65.949 0.554892 65.883 1.38069C65.8171 2.20649 66.4331 2.92938 67.2589 2.99532L79.2208 3.95038L78.2658 15.9123C78.1998 16.7381 78.8158 17.461 79.6416 17.5269C80.4674 17.5929 81.1903 16.9769 81.2562 16.1511L82.3307 2.69391ZM0.835449 35.5745L1.67085 36.8204L32.8945 15.8834L32.0591 14.6375L31.2237 13.3917L5.33462e-05 34.3287L0.835449 35.5745ZM32.0591 14.6375L31.0691 15.7645L48.1155 30.7393L49.1055 29.6123L50.0955 28.4854L33.049 13.5106L32.0591 14.6375ZM49.1055 29.6123L50.0784 30.7541L81.8083 3.71624L80.8354 2.57452L79.8626 1.43281L48.1326 28.4706L49.1055 29.6123Z" fill="url(#paint0_linear_232_656)"/>
<defs>
<linearGradient id="paint0_linear_232_656" x1="0.835449" y1="19.0745" x2="80.8354" y2="19.0745" gradientUnits="userSpaceOnUse">
<stop stop-color="#A7BECF"/>
<stop offset="1" stop-color="#66A0CB"/>
</linearGradient>
</defs>
</svg>
