<svg width="100" height="100" viewBox="0 0 100 100" fill="none" xmlns="http://www.w3.org/2000/svg">
<path d="M65.8312 64.5844C69.6656 62.4532 69.1687 54.2407 64.7249 46.2282C62.8187 42.7782 60.4749 39.9844 58.1312 38.0313C55.3285 40.111 51.9337 41.239 48.4437 41.2501C44.9483 41.2423 41.5475 40.1142 38.7406 38.0313C36.3968 39.9844 34.0593 42.7813 32.1468 46.2282C27.6999 54.2376 27.2093 62.4532 31.0531 64.5844C32.7656 65.5594 34.5718 64.8282 36.4343 63.0344C36.0855 64.967 35.9108 66.9269 35.9124 68.8907C35.9124 78.0719 39.4749 85.4907 43.8593 85.4907C46.503 85.4907 47.8124 82.7876 48.4406 78.6532C49.0656 82.7594 50.3781 85.4907 53.0031 85.4907C57.3687 85.4907 60.9593 78.0688 60.9593 68.8907C60.9593 66.8282 60.7655 64.8595 60.4343 63.0376C62.3093 64.8344 64.1093 65.5782 65.828 64.5907L65.8312 64.5844ZM48.4374 38.1251C50.2104 38.1515 51.971 37.8251 53.6167 37.1648C55.2624 36.5045 56.7603 35.5234 58.0233 34.2787C59.2862 33.034 60.289 31.5506 60.9733 29.9147C61.6575 28.2788 62.0096 26.5232 62.009 24.75C62.0084 22.9768 61.6551 21.2214 60.9696 19.586C60.2842 17.9506 59.2804 16.4679 58.0166 15.2241C56.7527 13.9803 55.2541 13.0003 53.608 12.3411C51.9619 11.6819 50.201 11.3567 48.428 11.3844C44.9174 11.4393 41.5693 12.8728 39.1065 15.3752C36.6437 17.8777 35.264 21.2483 35.2652 24.7594C35.2665 28.2704 36.6485 31.6401 39.1131 34.1408C41.5776 36.6416 44.9268 38.0726 48.4374 38.1251ZM75.2937 46.6063C78.1493 46.5229 80.86 45.3298 82.8504 43.2804C84.8408 41.231 85.9541 38.4866 85.9541 35.6298C85.9541 32.7729 84.8408 30.0285 82.8504 27.9791C80.86 25.9297 78.1493 24.7367 75.2937 24.6532C72.3817 24.6536 69.5891 25.8108 67.5303 27.8702C65.4715 29.9296 64.3151 32.7225 64.3155 35.6344C64.316 38.5464 65.4731 41.339 67.5325 43.3978C69.5919 45.4566 72.3848 46.613 75.2968 46.6126L75.2937 46.6063ZM88.6687 53.2626C87.0999 50.4251 85.1812 48.1313 83.2562 46.5282C80.9535 48.2343 78.1657 49.1596 75.2999 49.1688C72.9374 49.1688 70.7374 48.5219 68.8124 47.4501C70.3624 50.8657 71.3218 54.3251 71.4999 57.4188C71.7937 62.1563 70.3124 65.6688 67.3499 67.3094C66.7154 67.6593 66.0249 67.8962 65.3093 68.0094C65.1312 69.2344 65.0093 70.5094 65.0093 71.8532C65.0093 79.3938 67.9312 85.4844 71.5343 85.4844C73.703 85.4844 74.7843 83.2657 75.2968 79.8719C75.8062 83.2469 76.8843 85.4844 79.0468 85.4844C82.6249 85.4844 85.578 79.3907 85.578 71.8595C85.578 70.1626 85.4124 68.5469 85.1405 67.0469C86.678 68.5251 88.1593 69.1344 89.5718 68.3219C92.7187 66.5719 92.3124 59.8282 88.6655 53.2594L88.6687 53.2626ZM21.5812 46.6063C23.7516 46.6051 25.8728 45.9604 27.6769 44.7537C29.4809 43.547 30.8866 41.8325 31.7163 39.8269C32.546 37.8214 32.7625 35.6149 32.3383 33.4864C31.9141 31.3578 30.8683 29.4029 29.3332 27.8686C27.7981 26.3344 25.8425 25.2897 23.7137 24.8667C21.585 24.4438 19.3786 24.6615 17.3735 25.4923C15.3685 26.3232 13.6548 27.7299 12.4491 29.5346C11.2434 31.3393 10.5999 33.4609 10.5999 35.6313C10.6008 38.5435 11.758 41.3361 13.8172 43.3953C15.8764 45.4545 18.669 46.6117 21.5812 46.6126V46.6063ZM29.503 67.3001C24.528 64.5344 24.0718 56.2876 28.078 47.4438C26.0979 48.5683 23.8614 49.1635 21.5843 49.1719C18.5968 49.1719 15.8593 48.1719 13.6155 46.5282C11.6937 48.1282 9.77805 50.4219 8.20305 53.2563C4.55617 59.8313 4.15617 66.5751 7.30617 68.3188C8.71242 69.1251 10.1968 68.5219 11.7249 67.0501C11.4469 68.6371 11.3057 70.2451 11.303 71.8563C11.303 79.3938 14.2249 85.4813 17.828 85.4813C19.9968 85.4813 21.078 83.2626 21.5905 79.8719C22.1062 83.2469 23.1843 85.4844 25.3405 85.4844C28.9249 85.4844 31.8718 79.3907 31.8718 71.8595C31.8718 70.5063 31.7468 69.2282 31.5687 68.0032C30.8451 67.8904 30.147 67.6514 29.5062 67.2969L29.503 67.3001Z" fill="black"/>
</svg>
