<svg width="100" height="100" viewBox="0 0 100 100" fill="none" xmlns="http://www.w3.org/2000/svg">
<path d="M42.5312 10.0937L34.5469 18.0781C32.1562 18.7344 29.9375 19.9375 28.0625 21.5938L23.9062 25.2969C22.3125 26.7188 20.2344 27.5 18.0938 27.5H15V47.5C18.1875 47.5938 21.2188 48.8906 23.4844 51.1562L29.0469 56.7188L30.1406 57.8125L34.3594 62.0312C35.3281 63 36.9219 63 37.8906 62.0312C38.1562 61.7656 38.3594 61.4531 38.4688 61.125C38.9062 59.9219 39.9219 59.0156 41.1719 58.7344C42.4219 58.4531 43.7344 58.8281 44.6406 59.75L46.3281 61.4062C48.1406 63.2188 51.0781 63.2188 52.875 61.4062C53.7188 60.5625 54.1719 59.4844 54.2188 58.375C54.2812 57 55.0938 55.7812 56.3438 55.1875C57.5938 54.5938 59.0469 54.7188 60.1562 55.5156C61.625 56.5625 63.6719 56.4219 64.9844 55.1094C66.4531 53.6406 66.4531 51.2656 64.9844 49.8125L53.1406 37.9688L47.5469 43.125C43.2812 47.0625 36.7344 47.125 32.3906 43.2656C27.4375 38.8594 27.3281 31.1719 32.1406 26.625L43.0938 16.2812C47.375 12.25 53.0312 10 58.9219 10C64.5625 10 70.0156 12.0781 74.2188 15.8125L78.9219 20H97.5C98.875 20 100 21.125 100 22.5V55C100 57.7656 97.7656 60 95 60H90C88.1562 60 86.5312 59 85.6719 57.5H72.4062C71.875 58.5469 71.1719 59.5469 70.2969 60.4219C67.625 63.0938 63.9219 64.1406 60.4531 63.5625C59.8906 64.7031 59.125 65.7656 58.1719 66.7188C53.9062 70.9844 47.2344 71.4062 42.4844 67.9844C38.5625 71.2344 32.7188 71.0312 29.0469 67.3438L24.8438 63.125L23.75 62.0312L18.1875 56.4688C17.3281 55.6094 16.2031 55.1094 15 55.0156C15 57.7656 12.75 60 10 60H5C2.23438 60 0 57.7656 0 55V22.5C0 21.125 1.125 20 2.5 20H18.0938C18.4062 20 18.7031 19.8906 18.9219 19.6875L23.0625 16C27.4219 12.1406 33.0312 10 38.8594 10H40.4688C41.1562 10 41.8594 10.0312 42.5312 10.0937ZM85 50V27.5H77.5C76.5781 27.5 75.6875 27.1562 75.0156 26.5469L69.25 21.4219C66.4062 18.8906 62.7344 17.5 58.9219 17.5C54.9531 17.5 51.1406 19.0156 48.25 21.7344L37.2969 32.0781C35.6875 33.6094 35.7188 36.1875 37.375 37.6562C38.8281 38.9531 41.0312 38.9219 42.4531 37.6094L53.6875 27.2344C55.2031 25.8281 57.5781 25.9219 58.9844 27.4531C60.3906 28.9844 60.2969 31.3438 58.7656 32.75L58.6406 32.875L70.2656 44.5C71.8281 46.0625 72.8438 47.9844 73.2969 49.9844H84.9844L85 50ZM10 52.5C10 51.837 9.73661 51.2011 9.26777 50.7322C8.79893 50.2634 8.16304 50 7.5 50C6.83696 50 6.20107 50.2634 5.73223 50.7322C5.26339 51.2011 5 51.837 5 52.5C5 53.163 5.26339 53.7989 5.73223 54.2678C6.20107 54.7366 6.83696 55 7.5 55C8.16304 55 8.79893 54.7366 9.26777 54.2678C9.73661 53.7989 10 53.163 10 52.5ZM92.5 55C93.163 55 93.7989 54.7366 94.2678 54.2678C94.7366 53.7989 95 53.163 95 52.5C95 51.837 94.7366 51.2011 94.2678 50.7322C93.7989 50.2634 93.163 50 92.5 50C91.837 50 91.2011 50.2634 90.7322 50.7322C90.2634 51.2011 90 51.837 90 52.5C90 53.163 90.2634 53.7989 90.7322 54.2678C91.2011 54.7366 91.837 55 92.5 55Z" fill="black"/>
</svg>
