<svg width="100" height="100" viewBox="0 0 100 100" fill="none" xmlns="http://www.w3.org/2000/svg">
<path d="M88.875 53.7917C89.25 60.25 86.2917 66.4584 81 70.2501L84.2083 76.4584C85.1667 78.3334 85.2917 80.5417 84.4583 82.5001C83.6667 84.4584 82.0417 86.0001 80.0417 86.6667L76.75 87.7084C75.3792 88.1683 73.9001 88.1951 72.5135 87.785C71.127 87.3751 69.9002 86.5482 69 85.4167L60.1667 75.0001C56.4583 74.3751 52.9583 72.7917 50 70.4167C47.9167 71.0417 45.8333 71.375 43.75 71.375C40.0833 71.375 36.4167 70.2501 33.3333 68.0834C31.125 68.7501 28.875 69.0417 26.5833 69C23.2917 69.0417 20.0417 68.3751 17 67.1251C14.0708 65.8207 11.5678 63.7184 9.77723 61.0584C7.9867 58.3984 6.98094 55.2881 6.87499 52.0834C6.54166 49.0834 7.04166 46.0417 8.33333 43.2917C7.12499 40.1667 6.99999 36.7501 8.04166 33.5834C9.58333 29.6251 12.5 26.3334 16.125 24.2501C18.5417 17.2084 25.3333 12.5001 32.7917 13.0001C39.4583 6.75005 49.6667 6.08339 57.0833 11.4584C58.8333 11.0001 60.6667 10.7501 62.5 10.7501C68.1667 10.6251 73.5417 13.1251 77.0833 17.5834C85.5833 19.7917 91.6667 27.3751 92 36.2084C92.2083 40.8334 90.9583 45.375 88.4167 49.25C88.7083 50.75 88.875 52.2501 88.875 53.7917ZM68.0417 47.9167C70.4167 48.2084 72.2917 50 72.2917 52.375C72.2917 53.4801 71.8527 54.5399 71.0713 55.3213C70.2899 56.1027 69.2301 56.5417 68.125 56.5417H65.5C64.1667 60.2917 61.8333 63.5834 58.75 66.0834C59.7917 66.4584 60.875 66.6667 61.9583 66.9584C83.3333 66.6667 80.8333 53.625 80.8333 53.4167C80.7797 51.9992 80.4471 50.6062 79.8545 49.3173C79.262 48.0285 78.4212 46.8691 77.3802 45.9055C76.3392 44.9418 75.1184 44.1929 73.7877 43.7015C72.457 43.2101 71.0424 42.9859 69.625 43.0417C68.5199 43.0417 67.4601 42.6027 66.6787 41.8213C65.8973 41.0399 65.4583 39.9801 65.4583 38.8751C65.4583 37.77 65.8973 36.7102 66.6787 35.9288C67.4601 35.1474 68.5199 34.7084 69.625 34.7084C74.75 34.8334 79.6667 36.7501 83.5 40.1251C83.7083 38.9167 83.8333 37.6667 83.8333 36.4167C83.5833 31.2501 81.25 26.7501 71.875 25.8751C66.6667 13.5417 53.5417 20.3751 53.5417 24.2084C53.4167 25.1667 54.4167 27.2084 54.5833 27.3334C55.6884 27.3334 56.7482 27.7724 57.5296 28.5538C58.311 29.3352 58.75 30.395 58.75 31.5001C58.75 33.7917 56.875 35.6667 54.5833 35.6667C52.375 35.5834 50.2917 34.7501 48.625 33.3334C46.625 34.6251 44.3333 35.4167 41.9583 35.6667C39.5833 35.8751 37.625 34.2084 37.5 31.9167C37.4245 31.3726 37.4606 30.8188 37.6063 30.2892C37.752 29.7595 38.0041 29.2651 38.3473 28.8362C38.6904 28.4073 39.1174 28.0528 39.6022 27.7944C40.0869 27.536 40.6193 27.3791 41.1667 27.3334C41.8333 27.2501 45.0833 26.7501 45.0833 24.1251C45.0833 21.3751 46.125 18.7501 47.9167 16.6667C44.0833 15.6251 39.9583 17.0001 35.7917 22.0417C28.125 20.8334 25 21.8751 22.7083 30.0001C18.75 31.9584 16.6667 33.3334 15.75 37.5001C20.25 36.5834 24.875 36.9584 29.1667 38.5417C31.25 39.3334 32.4167 41.6667 31.625 43.9167C30.8333 46.0834 28.4167 47.1667 26.25 46.3751C23.2083 45.0417 19.7917 44.9584 16.6667 46.125C15.3333 47.25 15.3333 49.5834 15.3333 51.4167C15.3333 54.5001 16.875 57.3751 19.5 59.0417C21.7083 60.1667 24.1667 60.75 26.625 60.7084C26 59.625 25.4583 58.5001 25 57.3334C24.672 56.2629 24.7719 55.1069 25.2787 54.1085C25.7856 53.1101 26.6598 52.3472 27.7176 51.9802C28.7754 51.6132 29.9343 51.6708 30.9505 52.1407C31.9668 52.6107 32.7612 53.4564 33.1667 54.5001C34.8333 59.2501 39.0833 62.5001 44.0833 63.0417C49.7917 62.7501 54.875 59.3751 57.375 54.1667C58.3333 48.4167 62.9583 47.9167 68.0417 47.9167ZM76.375 79.0417L73.7917 73.6251L70.8333 74.2917L75 79.5001L76.375 79.0417ZM57 43.1667C57.0362 42.1023 56.6635 41.0644 55.9583 40.2663C55.2531 39.4681 54.2691 38.9703 53.2083 38.8751C50.25 38.7084 47.375 39.7084 45.1667 41.6667C42.7917 44.0834 41.5417 47.4167 41.6667 50.7917C41.6667 51.8968 42.1057 52.9566 42.8871 53.738C43.6685 54.5194 44.7283 54.9584 45.8333 54.9584C48.2083 54.9584 50 53.0834 50 50.7917C50 49.6667 50.2917 48.5417 50.9583 47.6251C51.4583 47.2084 52.0833 47 52.75 47C55.0417 47.125 57 45.4167 57 43.1667Z" fill="black"/>
</svg>
