<svg width="65" height="67" viewBox="0 0 65 67" fill="none" xmlns="http://www.w3.org/2000/svg">
<path d="M49.5567 35.21C48.61 43.0933 43.4467 46.2433 41.2167 48.53C38.9833 50.8233 39.3833 51.28 39.5333 54.6433C39.5584 55.0594 39.4979 55.4763 39.3557 55.8681C39.2135 56.26 38.9926 56.6186 38.7065 56.9219C38.4205 57.2251 38.0753 57.4665 37.6924 57.6313C37.3095 57.7961 36.8969 57.8807 36.48 57.88H27.62C27.2034 57.8793 26.7913 57.7937 26.4089 57.6284C26.0265 57.4632 25.6817 57.2218 25.3957 56.9189C25.1097 56.616 24.8883 56.258 24.7452 55.8668C24.6021 55.4756 24.5402 55.0593 24.5633 54.6433C24.5633 51.3433 24.87 50.5766 22.8833 48.53C20.35 45.9966 14.39 42.42 14.39 32.5833C14.3748 30.14 14.8659 27.72 15.8324 25.4759C16.7988 23.2317 18.2197 21.2122 20.0055 19.5445C21.7912 17.8768 23.9031 16.5971 26.2079 15.786C28.5128 14.975 30.9607 14.6503 33.3973 14.8323C35.8339 15.0143 38.2064 15.6991 40.3652 16.8435C42.524 17.9879 44.4223 19.5671 45.9405 21.4816C47.4586 23.3961 48.5637 25.6043 49.1861 27.9671C49.8085 30.3299 49.9347 32.796 49.5567 35.21Z" stroke="url(#paint0_linear_477_189)" stroke-width="3" stroke-linecap="round" stroke-linejoin="round"/>
<path d="M26.9167 57.6967V62.7367C26.9167 64.1133 27.6833 65.2433 28.6267 65.2433H35.47C36.42 65.2433 37.1833 64.11 37.1833 62.7367V57.6967M29.45 22.5633C27.4818 22.5642 25.5945 23.3467 24.2031 24.7388C22.8116 26.1308 22.03 28.0185 22.03 29.9867M56.49 33.2567H62.6033M50.3367 13.2167L54.6733 8.88M53.67 50.2433L58.0067 54.5767M32.05 1.5V6.44333M9.51667 8.87667L13.8233 13.2167M6.18333 54.5767L10.49 50.2433M7.61 33.2567H1.5" stroke="url(#paint1_linear_477_189)" stroke-width="3" stroke-linecap="round" stroke-linejoin="round"/>
<defs>
<linearGradient id="paint0_linear_477_189" x1="14.3896" y1="36.3316" x2="49.7696" y2="36.3316" gradientUnits="userSpaceOnUse">
<stop stop-color="#A7BECF"/>
<stop offset="1" stop-color="#66A0CB"/>
</linearGradient>
<linearGradient id="paint1_linear_477_189" x1="1.5" y1="33.3717" x2="62.6033" y2="33.3717" gradientUnits="userSpaceOnUse">
<stop stop-color="#A7BECF"/>
<stop offset="1" stop-color="#66A0CB"/>
</linearGradient>
</defs>
</svg>
