<svg width="82" height="85" viewBox="0 0 82 85" fill="none" xmlns="http://www.w3.org/2000/svg">
<path d="M62.5711 44.6375C61.3877 54.4917 54.9336 58.4292 52.1461 61.2875C49.3544 64.1542 49.8544 64.725 50.0419 68.9292C50.0732 69.4494 49.9976 69.9704 49.8199 70.4603C49.6421 70.9501 49.366 71.3984 49.0084 71.7774C48.6508 72.1564 48.2194 72.4583 47.7408 72.6642C47.2621 72.8702 46.7463 72.976 46.2252 72.975H35.1502C34.6295 72.9742 34.1144 72.8672 33.6364 72.6606C33.1583 72.4541 32.7274 72.1523 32.3699 71.7737C32.0123 71.3951 31.7357 70.9476 31.5568 70.4586C31.3779 69.9695 31.3005 69.4492 31.3294 68.9292C31.3294 64.8042 31.7127 63.8459 29.2294 61.2875C26.0627 58.1209 18.6127 53.65 18.6127 41.3542C18.5937 38.3 19.2076 35.275 20.4157 32.4699C21.6238 29.6648 23.3999 27.1403 25.6321 25.0557C27.8643 22.971 30.5041 21.3714 33.3852 20.3576C36.2662 19.3439 39.3261 18.9379 42.3718 19.1654C45.4176 19.3929 48.3832 20.2489 51.0817 21.6794C53.7802 23.1099 56.1531 25.084 58.0508 27.4771C59.9485 29.8702 61.3299 32.6305 62.1079 35.584C62.8859 38.5375 63.0436 41.6201 62.5711 44.6375Z" stroke="black" stroke-width="5" stroke-linecap="round" stroke-linejoin="round"/>
<path d="M34.2708 72.7458V79.0458C34.2708 80.7667 35.2292 82.1792 36.4083 82.1792H44.9625C46.15 82.1792 47.1042 80.7625 47.1042 79.0458V72.7458M37.4375 28.8292C34.9772 28.8303 32.6181 29.8084 30.8788 31.5484C29.1396 33.2885 28.1625 35.6481 28.1625 38.1083M71.2375 42.1958H78.8792M63.5458 17.1458L68.9667 11.725M67.7125 63.4292L73.1333 68.8458M40.6875 2.5V8.67917M12.5208 11.7208L17.9042 17.1458M8.35417 68.8458L13.7375 63.4292M10.1375 42.1958H2.5" stroke="black" stroke-width="5" stroke-linecap="round" stroke-linejoin="round"/>
</svg>
