<svg width="100" height="100" viewBox="0 0 100 100" fill="none" xmlns="http://www.w3.org/2000/svg">
<path d="M3.49023 3.67969V13.2988C7.45898 21.8555 11.4238 30.4102 15.3926 38.9648C21.1914 38.7305 27.0117 38.5156 32.8125 38.3008C35.6445 35.293 38.6914 32.5391 42.1875 29.707L19.7461 14.6426L16.9746 3.67969H3.49219H3.49023ZM21.9727 3.67969C23.1641 6.83398 24.3555 9.99414 25.5664 13.1465C30.1562 13.5332 34.7656 13.9082 39.3555 14.2891L43.8086 28.418C44.7852 27.6367 45.8203 26.8359 46.875 26.0352C45.2734 20.9766 43.7109 15.9121 42.1094 10.8574C37.4609 10.4688 32.8125 10.0879 28.1641 9.70508L25.8789 3.67969H21.9727ZM12.7676 24.6289L21.0156 25.0195L29.6875 34.7656L17.6816 35.2148L12.7676 24.6289ZM51.2305 27.2852C41.6797 34.4336 35.7422 39.5703 29.9023 47.5195C30.6445 49.8633 31.6797 52.2461 32.9492 54.6094L52.5586 37.3242L54.9805 40.0586L34.8438 57.793C36.2109 59.9414 37.7734 62.0313 39.4922 64.0039L60.4297 46.6992L62.7539 49.5117L41.9727 66.6602C43.5352 68.2227 45.1953 69.6875 46.9336 70.9961L67.1875 56.2305L69.3359 59.1797L50.1172 73.1836C52.1094 74.4336 54.1797 75.4688 56.3086 76.2891C64.3359 73.0078 71.5234 66.5039 76.9727 60.1562C78.1445 58.7891 78.5938 57.4219 78.4375 56.1914C78.2617 54.9609 77.4805 53.6133 75.3711 52.2656L74.3555 51.6211L74.5508 50.4297C75.0391 47.4609 74.3164 46.1133 73.2812 45.1953C72.2656 44.2969 70.6055 43.8672 69.1602 43.8672L66.2305 43.8477L67.5391 41.2109C68.3984 39.4727 68.2227 37.5977 67.168 36.1719C66.1133 34.7461 64.1211 33.6523 60.8203 33.9453L58.3398 34.1406L58.8867 31.7188C59.4922 28.9453 58.457 27.6172 56.7969 26.8164C54.9609 26.0547 52.8125 26.2305 51.2305 27.2852ZM25.8789 46.875C24.1406 48.8477 22.6367 50.9961 21.5039 53.2422C23.1445 57.3242 25.3516 60.2734 27.9492 62.0117C29.9219 63.3398 32.1289 64.0234 34.668 64.043C30.7422 58.3594 27.5977 52.7148 25.8789 46.875ZM77.1875 65.3906C76.3672 66.2695 75.5273 67.1289 74.6484 68.0078L79.2773 72.0312L75.7617 75.0977L72.4609 70.0586C70.0586 72.2266 67.4609 74.2578 64.6875 76.0352L67.4609 82.3047C64.0039 85.3125 60.5469 88.3008 57.0898 91.3086C59.6094 93.0469 62.1094 94.7852 64.6094 96.5234H71.0156L63.0273 90.9766L69.0039 85.8008L71.2891 90.9961L75.2148 90.3516L77.5 96.5234H81.4062L78.8672 89.7266L90.7617 87.7148L88.1641 96.5234H96.3281V78.75L79.4141 80.6445L77.793 78.1641C80.1562 76.1328 82.5 74.082 84.8438 72.0508C82.2461 69.7852 79.4727 67.3438 77.1875 65.3906Z" fill="black"/>
</svg>
